{
  "accessors": [
    {
      "bufferView": 2,
      "componentType": 5126,
      "count": 396,
      "max": [
        0.23117467761039734,
        0.8428876996040344,
        -0.11548101902008057
      ],
      "min": [
        -0.24339066445827484,
        -0.75773686170578,
        -0.26188185811042786
      ],
      "type": "VEC3"
    },
    {
      "bufferView": 2,
      "byteOffset": 4752,
      "componentType": 5126,
      "count": 396,
      "max": [
        0.998099148273468,
        0.9892272353172302,
        0.9999751448631287
      ],
      "min": [
        -0.9999940991401672,
        -0.9180610775947571,
        -0.9999753832817078
      ],
      "type": "VEC3"
    },
    {
      "bufferView": 3,
      "componentType": 5126,
      "count": 396,
      "max": [
        0.9797177910804749,
        0.9460910558700562,
        0.5672001838684082,
        1.0
      ],
      "min": [
        -0.9937866926193237,
        -0.9999983310699463,
        -0.5165530443191528,
        1.0
      ],
      "type": "VEC4"
    },
    {
      "bufferView": 1,
      "componentType": 5126,
      "count": 396,
      "max": [
        0.9971946477890015,
        0.9978585243225098
      ],
      "min": [
        0.0021338644437491894,
        0.001957633998245001
      ],
      "type": "VEC2"
    },
    {
      "bufferView": 0,
      "componentType": 5125,
      "count": 1788,
      "type": "SCALAR"
    },
    {
      "bufferView": 2,
      "byteOffset": 9504,
      "componentType": 5126,
      "count": 770,
      "max": [
        0.5111040472984314,
        1.383950114250183,
        1.0476984977722168
      ],
      "min": [
        -0.5111040472984314,
        -1.383950114250183,
        -1.2360742092132568
      ],
      "type": "VEC3"
    },
    {
      "bufferView": 2,
      "byteOffset": 18744,
      "componentType": 5126,
      "count": 770,
      "max": [
        1.0,
        0.9950138926506042,
        1.0
      ],
      "min": [
        -1.0,
        -0.9950138926506042,
        -1.0
      ],
      "type": "VEC3"
    },
    {
      "bufferView": 3,
      "byteOffset": 6336,
      "componentType": 5126,
      "count": 770,
      "max": [
        0.9999934434890747,
        0.5505697727203369,
        1.0,
        1.0
      ],
      "min": [
        -0.9967772364616394,
        -0.5505715012550354,
        -0.9999999403953552,
        1.0
      ],
      "type": "VEC4"
    },
    {
      "bufferView": 1,
      "byteOffset": 3168,
      "componentType": 5126,
      "count": 770,
      "max": [
        0.9765208959579468,
        0.9764013290405273
      ],
      "min": [
        0.0019559403881430626,
        0.0019503927323967218
      ],
      "type": "VEC2"
    },
    {
      "bufferView": 0,
      "byteOffset": 7152,
      "componentType": 5125,
      "count": 4320,
      "type": "SCALAR"
    },
    {
      "bufferView": 2,
      "byteOffset": 27984,
      "componentType": 5126,
      "count": 224,
      "max": [
        0.22681182622909546,
        0.7580339908599854,
        -0.12459325790405273
      ],
      "min": [
        -0.23712363839149475,
        -0.8427727222442627,
        -0.2621527314186096
      ],
      "type": "VEC3"
    },
    {
      "bufferView": 2,
      "byteOffset": 30672,
      "componentType": 5126,
      "count": 224,
      "max": [
        0.9987682104110718,
        0.9185984134674072,
        0.9999999403953552
      ],
      "min": [
        -0.999993622303009,
        -0.9895792603492737,
        -0.3837268054485321
      ],
      "type": "VEC3"
    },
    {
      "bufferView": 3,
      "byteOffset": 18656,
      "componentType": 5126,
      "count": 224,
      "max": [
        0.38881373405456543,
        0.7096197009086609,
        0.9952574968338013,
        1.0
      ],
      "min": [
        -0.4179579019546509,
        -0.9999982118606567,
        -0.12298814952373505,
        1.0
      ],
      "type": "VEC4"
    },
    {
      "bufferView": 1,
      "byteOffset": 9328,
      "componentType": 5126,
      "count": 224,
      "max": [
        0.9980465173721313,
        0.9728028178215027
      ],
      "min": [
        0.5433114767074585,
        0.1963013857603073
      ],
      "type": "VEC2"
    },
    {
      "bufferView": 0,
      "byteOffset": 24432,
      "componentType": 5125,
      "count": 930,
      "type": "SCALAR"
    }
  ],
  "asset": {
    "extras": {
      "author": "AlexanderRuz (https://sketchfab.com/AlexanderRuz)",
      "license": "CC-BY-4.0 (http://creativecommons.org/licenses/by/4.0/)",
      "source": "https://sketchfab.com/3d-models/heart-sketchfabweeklychallenge-2b0f15f41f7f4f958a04831488004cde",
      "title": "Heart ( #SketchfabWeeklyChallenge )"
    },
    "generator": "Sketchfab-12.64.0",
    "version": "2.0"
  },
  "bufferViews": [
    {
      "buffer": 0,
      "byteLength": 28152,
      "name": "floatBufferViews",
      "target": 34963
    },
    {
      "buffer": 0,
      "byteLength": 11120,
      "byteOffset": 28152,
      "byteStride": 8,
      "name": "floatBufferViews",
      "target": 34962
    },
    {
      "buffer": 0,
      "byteLength": 33360,
      "byteOffset": 39272,
      "byteStride": 12,
      "name": "floatBufferViews",
      "target": 34962
    },
    {
      "buffer": 0,
      "byteLength": 22240,
      "byteOffset": 72632,
      "byteStride": 16,
      "name": "floatBufferViews",
      "target": 34962
    }
  ],
  "buffers": [
    {
      "byteLength": 94872,
      "uri": "scene.bin"
    }
  ],
  "images": [
    {
      "uri": "textures/Scene_-_Root_baseColor.png"
    },
    {
      "uri": "textures/Scene_-_Root_metallicRoughness.png"
    },
    {
      "uri": "textures/Scene_-_Root_normal.png"
    }
  ],
  "materials": [
    {
      "doubleSided": true,
      "name": "Scene_-_Root",
      "normalTexture": {
        "index": 2
      },
      "occlusionTexture": {
        "index": 1
      },
      "pbrMetallicRoughness": {
        "baseColorTexture": {
          "index": 0
        },
        "metallicFactor": 0.0,
        "metallicRoughnessTexture": {
          "index": 1
        }
      }
    }
  ],
  "meshes": [
    {
      "name": "patch_02_low__0",
      "primitives": [
        {
          "attributes": {
            "NORMAL": 1,
            "POSITION": 0,
            "TANGENT": 2,
            "TEXCOORD_0": 3
          },
          "indices": 4,
          "material": 0,
          "mode": 4
        }
      ]
    },
    {
      "name": "heart_low__0",
      "primitives": [
        {
          "attributes": {
            "NORMAL": 6,
            "POSITION": 5,
            "TANGENT": 7,
            "TEXCOORD_0": 8
          },
          "indices": 9,
          "material": 0,
          "mode": 4
        }
      ]
    },
    {
      "name": "patch-01_low__0",
      "primitives": [
        {
          "attributes": {
            "NORMAL": 11,
            "POSITION": 10,
            "TANGENT": 12,
            "TEXCOORD_0": 13
          },
          "indices": 14,
          "material": 0,
          "mode": 4
        }
      ]
    }
  ],
  "nodes": [
    {
      "children": [
        1
      ],
      "matrix": [
        1.0,
        0.0,
        0.0,
        0.0,
        0.0,
        2.220446049250313e-16,
        -1.0,
        0.0,
        0.0,
        1.0,
        2.220446049250313e-16,
        0.0,
        0.0,
        0.0,
        0.0,
        1.0
      ],
      "name": "Sketchfab_model"
    },
    {
      "children": [
        2
      ],
      "matrix": [
        0.009999999776482582,
        0.0,
        0.0,
        0.0,
        0.0,
        0.0,
        0.009999999776482582,
        0.0,
        0.0,
        -0.009999999776482582,
        0.0,
        0.0,
        0.0,
        0.0,
        0.0,
        1.0
      ],
      "name": "cbe99329a4e6488d94fb9051e2c9f770.fbx"
    },
    {
      "children": [
        3,
        5,
        7
      ],
      "name": "RootNode"
    },
    {
      "children": [
        4
      ],
      "matrix": [
        6.323135659513923e-06,
        -83.75247132461702,
        -54.63994461032296,
        0.0,
        3.424588901346226e-06,
        54.639944610323234,
        -83.75247132461702,
        0.0,
        99.99999999999973,
        3.424588901346226e-06,
        6.323135659513923e-06,
        0.0,
        65.42124938964844,
        0.0,
        0.0,
        1.0
      ],
      "name": "patch_02_low"
    },
    {
      "mesh": 0,
      "name": "patch_02_low__0"
    },
    {
      "children": [
        6
      ],
      "matrix": [
        100.0,
        0.0,
        0.0,
        0.0,
        0.0,
        -1.629206793918314e-05,
        -99.99999999999868,
        0.0,
        0.0,
        99.99999999999868,
        -1.629206793918314e-05,
        0.0,
        0.0,
        0.0,
        0.0,
        1.0
      ],
      "name": "heart_low"
    },
    {
      "mesh": 1,
      "name": "heart_low__0"
    },
    {
      "children": [
        8
      ],
      "matrix": [
        6.325077683833058e-06,
        -83.7781939695707,
        54.600496473905324,
        0.0,
        1.1672012756314132e-05,
        -54.600496473904435,
        -83.7781939695707,
        0.0,
        99.99999999999912,
        1.1672012756314132e-05,
        6.325077683833058e-06,
        0.0,
        65.26543426513672,
        0.0,
        0.0,
        1.0
      ],
      "name": "patch-01_low"
    },
    {
      "mesh": 2,
      "name": "patch-01_low__0"
    }
  ],
  "samplers": [
    {
      "magFilter": 9729,
      "minFilter": 9987,
      "wrapS": 10497,
      "wrapT": 10497
    }
  ],
  "scene": 0,
  "scenes": [
    {
      "name": "Sketchfab_Scene",
      "nodes": [
        0
      ]
    }
  ],
  "textures": [
    {
      "sampler": 0,
      "source": 0
    },
    {
      "sampler": 0,
      "source": 1
    },
    {
      "sampler": 0,
      "source": 2
    }
  ]
}
